<svg width="25" height="26" viewBox="0 0 25 26" fill="none" xmlns="http://www.w3.org/2000/svg">
<path d="M4.16667 13.7437H10.4167C10.9896 13.7437 11.4583 13.2749 11.4583 12.702V4.36869C11.4583 3.79578 10.9896 3.32703 10.4167 3.32703H4.16667C3.59375 3.32703 3.125 3.79578 3.125 4.36869V12.702C3.125 13.2749 3.59375 13.7437 4.16667 13.7437ZM4.16667 22.077H10.4167C10.9896 22.077 11.4583 21.6083 11.4583 21.0354V16.8687C11.4583 16.2958 10.9896 15.827 10.4167 15.827H4.16667C3.59375 15.827 3.125 16.2958 3.125 16.8687V21.0354C3.125 21.6083 3.59375 22.077 4.16667 22.077ZM14.5833 22.077H20.8333C21.4062 22.077 21.875 21.6083 21.875 21.0354V12.702C21.875 12.1291 21.4062 11.6604 20.8333 11.6604H14.5833C14.0104 11.6604 13.5417 12.1291 13.5417 12.702V21.0354C13.5417 21.6083 14.0104 22.077 14.5833 22.077ZM13.5417 4.36869V8.53536C13.5417 9.10828 14.0104 9.57703 14.5833 9.57703H20.8333C21.4062 9.57703 21.875 9.10828 21.875 8.53536V4.36869C21.875 3.79578 21.4062 3.32703 20.8333 3.32703H14.5833C14.0104 3.32703 13.5417 3.79578 13.5417 4.36869Z" fill="#424242"/>
</svg>
